<svg width="46" height="46" viewBox="0 0 46 46" fill="none" xmlns="http://www.w3.org/2000/svg">
<mask id="mask0_1572_773" style="mask-type:alpha" maskUnits="userSpaceOnUse" x="0" y="0" width="46" height="46">
<rect width="46" height="46" transform="matrix(-1 0 0 1 46 0)" fill="#D9D9D9"/>
</mask>
<g mask="url(#mask0_1572_773)">
<path d="M30.9549 24.916L25.4924 30.3785C25.109 30.7618 24.9254 31.2091 24.9413 31.7202C24.9573 32.2313 25.141 32.6785 25.4924 33.0618C25.8757 33.4452 26.3309 33.6448 26.858 33.6608C27.3851 33.6768 27.8403 33.4931 28.2236 33.1097L36.9924 24.341C37.3757 23.9577 37.5674 23.5104 37.5674 22.9993C37.5674 22.4882 37.3757 22.041 36.9924 21.6577L28.2236 12.8889C27.8403 12.5056 27.3851 12.3219 26.858 12.3379C26.3309 12.3538 25.8757 12.5535 25.4924 12.9368C25.141 13.3202 24.9573 13.7674 24.9413 14.2785C24.9254 14.7896 25.109 15.2368 25.4924 15.6202L30.9549 21.0827H9.58405C9.04099 21.0827 8.58578 21.2663 8.21842 21.6337C7.85106 22.0011 7.66738 22.4563 7.66738 22.9993C7.66738 23.5424 7.85106 23.9976 8.21842 24.365C8.58578 24.7323 9.04099 24.916 9.58405 24.916H30.9549Z" fill="#1A1A1A" stroke="#F5F5F5" stroke-width="1.5"/>
</g>
</svg>
