<svg width="205" height="70" viewBox="0 0 205 70" fill="none" xmlns="http://www.w3.org/2000/svg">
<g clip-path="url(#clip0_1589_25)">
<path d="M202.812 26.7154C202.812 25.9264 202.261 25.4004 201.353 25.4004L199.571 25.4332L199.603 29.4441H200.575V28.0633H201.159L202.001 29.4441H203.136L202.131 27.8989C202.339 27.7819 202.512 27.6103 202.632 27.402C202.751 27.1937 202.814 26.9565 202.812 26.7154ZM201.159 27.2414H200.543V26.2223H201.256C201.384 26.208 201.513 26.2444 201.616 26.324C201.718 26.4036 201.787 26.5202 201.807 26.6497V26.6825C201.804 26.7638 201.785 26.8436 201.75 26.9169C201.716 26.9902 201.666 27.0552 201.605 27.1079C201.544 27.1605 201.473 27.1996 201.396 27.2226C201.319 27.2456 201.238 27.252 201.159 27.2414V27.2414ZM57.3837 45.2574C55.7307 45.2574 54.5963 43.9423 54.5963 42.0026V33.1591H61.4026V26.9127H54.6125L54.5477 19.7457H47.0284L47.0932 43.6136C47.0932 48.4463 50.2695 51.7339 54.9367 51.7339C57.3999 51.7339 59.7335 51.3723 61.5809 50.5175V44.4355C60.269 45.053 58.8279 45.3352 57.3837 45.2574V45.2574ZM75.3394 26.5182C68.3386 26.5182 62.9584 32.0413 62.9584 39.3726C62.9584 46.6381 68.3386 51.701 75.7607 51.701C79.9417 51.701 83.8634 50.1887 86.2618 47.0655L80.4927 44.4026C79.3259 45.4875 77.5433 45.9149 75.9552 45.9149C73.3623 45.9149 70.7694 44.567 70.4129 41.8054H87.6231C87.8818 40.8186 88.0125 39.8019 88.012 38.7808C88.012 31.2523 82.5994 26.5182 75.3556 26.5182H75.3394ZM70.4129 36.9727C70.6398 33.6851 72.9733 32.1728 75.5338 32.1728C78.4184 32.1728 80.5899 33.8166 80.5899 36.6439V36.9727H70.4129ZM39.8818 45.2574C38.2288 45.2574 37.0944 43.9423 37.0944 42.0026V33.1591H43.9007V26.9127H37.1106L37.0458 19.7457H29.5265L29.5913 43.6136C29.5913 48.4463 32.7676 51.7339 37.4347 51.7339C39.898 51.7339 42.2316 51.3723 44.079 50.5175V44.4355C42.768 45.056 41.3262 45.3383 39.8818 45.2574V45.2574ZM13.4668 26.5182C7.01705 26.5182 0.243164 30.8249 0.243164 39.5041C0.243164 46.7368 5.03999 51.7996 11.1008 51.7996C14.5688 51.7996 17.1941 50.386 18.9119 47.8874L19.1388 51.3722H26.415V39.8C26.415 30.9893 20.0138 26.5182 13.4668 26.5182V26.5182ZM13.4668 45.1258C10.1933 45.1258 7.82733 42.6602 7.82733 39.1753C7.82733 35.6905 10.1609 33.2248 13.4668 33.2248C16.5135 33.2248 19.0415 35.9206 19.0415 39.1753C19.0415 42.43 16.5135 45.1258 13.4668 45.1258V45.1258ZM200.997 23.5922C198.631 23.6251 197.107 25.1702 197.14 27.4716C197.172 29.7729 198.728 31.2851 201.094 31.2523C203.395 31.2194 204.951 29.6742 204.918 27.3401C204.886 25.0059 203.33 23.5593 200.997 23.5922V23.5922ZM201.094 30.5948C199.246 30.6276 197.982 29.3783 197.982 27.4716C197.982 25.5648 199.182 24.2826 201.029 24.2497C202.876 24.2168 204.108 25.4661 204.14 27.4058C204.14 29.2797 202.909 30.5619 201.11 30.5948H201.094ZM164.243 26.9455L158.992 42.3972L153.677 26.9455H145.509L155.297 51.3394H162.622L172.41 26.9455H164.243ZM183.722 26.5182C176.721 26.5182 171.341 32.0413 171.341 39.3726C171.341 46.6381 176.721 51.701 184.143 51.701C188.324 51.701 192.246 50.1887 194.644 47.0655L188.875 44.4026C187.708 45.4875 185.926 45.9149 184.337 45.9149C181.745 45.9149 179.152 44.567 178.795 41.8054H196.005C196.264 40.8186 196.395 39.8019 196.394 38.7808C196.394 31.2523 190.982 26.5182 183.722 26.5182ZM188.972 36.9727H178.795C179.022 33.6851 181.356 32.1728 183.916 32.1728C186.801 32.1728 188.972 33.8166 188.972 36.6439V36.9727ZM139.708 16.228C137.05 16.228 135.04 18.0362 135.04 20.5676C135.04 23.0991 137.05 24.973 139.708 24.973C142.365 24.973 144.375 23.1319 144.375 20.5676C144.375 18.0033 142.398 16.228 139.708 16.228V16.228ZM105.579 26.4853C104.059 26.4604 102.559 26.8348 101.224 27.5722C99.8896 28.3096 98.7658 29.3849 97.9622 30.6934L97.7029 26.9455H90.4428V51.3394H97.9622V38.5507C98.1242 35.4932 100.555 33.1591 103.213 33.1591C106.195 33.1591 107.556 35.4275 107.556 38.2877V51.3065H115.043V37.1042C115.043 30.9235 111.332 26.4853 105.579 26.4853V26.4853ZM128.526 45.2574C126.873 45.2574 125.738 43.9423 125.738 42.0026V33.1591H132.545V26.9127H125.738L125.674 19.7457H118.154L118.219 43.6136C118.219 48.4463 121.395 51.7339 126.062 51.7339C128.526 51.7339 130.859 51.3723 132.707 50.5175V44.4355C131.401 45.0533 129.965 45.3356 128.526 45.2574V45.2574ZM135.915 26.9455V51.3394H143.5V26.9455C142.375 27.7013 141.056 28.1044 139.708 28.1044C138.359 28.1044 137.04 27.7013 135.915 26.9455V26.9455Z" fill="#1A1E22"/>
</g>
<defs>
<clipPath id="clip0_1589_25">
<rect width="204.676" height="69.6768" fill="white" transform="translate(0.243164 0.172119)"/>
</clipPath>
</defs>
</svg>
