<svg width="188" height="62" viewBox="0 0 188 62" fill="none" xmlns="http://www.w3.org/2000/svg">
<g clip-path="url(#clip0_1589_28)">
<path d="M14.4456 16.4281C22.1258 16.4281 28.3814 22.6475 28.3814 30.3447C28.3814 38.0419 22.1258 44.2612 14.4456 44.2612C6.76541 44.2612 0.509766 38.1035 0.509766 30.3447C0.509766 22.5859 6.76541 16.4281 14.4456 16.4281ZM123.703 16.1202V40.505C123.703 42.3523 124.446 42.8449 125.87 43.2144L125.932 43.5223H118.066V40.505C117.137 42.7218 115.217 44.0765 112.74 44.0765C108.528 44.0765 105.741 40.2587 105.741 34.5935C105.741 31.3915 106.67 28.6821 108.404 26.65C110.076 24.6795 112.368 23.6327 114.907 23.6327C116.146 23.6327 117.199 23.879 118.066 24.4332V21.108C118.066 20.3691 117.88 19.8765 117.509 19.507C117.013 19.076 116.208 18.8912 114.969 19.0144H114.907V18.7065L123.703 16.1202ZM153.556 23.6943V40.505C153.556 42.3523 154.299 42.8449 155.724 43.2144V43.5223H147.858V40.4434C146.929 42.6602 144.885 44.0765 142.593 44.0765C139.868 44.0765 138.134 42.8449 137.453 40.4434L137.329 39.8276C137.205 39.2119 137.143 38.5961 137.143 37.9803V28.99C137.143 27.0195 136.709 26.4037 134.975 26.2806H134.913V25.9727L142.779 23.6943V37.8572C142.779 39.9508 143.708 41.1208 145.442 41.1208C146.495 41.1208 147.362 40.5666 147.858 39.6429V28.99C147.858 26.9579 147.486 26.3421 146.062 26.219H146V25.9111L153.556 23.6943ZM96.7599 23.6327C98.8658 23.6327 100.91 24.3716 102.272 25.6648C103.821 27.1426 104.626 29.2979 104.688 32.1304V32.192H92.8579C92.6101 36.2561 95.1495 39.5813 98.4941 39.7045C100.91 39.8892 103.016 38.4114 104.192 36.0098L104.502 36.133C103.821 40.6282 101.157 44.0149 96.5122 44.0149C91.2475 44.0149 88.2745 39.6429 88.1507 34.1625V32.7462C88.3984 30.3447 89.1416 28.1895 90.4423 26.5884C91.2475 25.6032 92.1766 24.8643 93.2914 24.3716C94.2205 23.879 95.5831 23.6327 96.698 23.6327H96.7599ZM178.703 23.6943C182.047 23.6943 184.091 25.7879 184.091 29.3594V40.8129C184.091 42.1676 184.71 42.8449 186.259 43.2144H186.321V43.5223H178.393V29.5442C178.393 27.3274 177.588 26.219 175.915 26.219C174.553 26.219 173.871 27.2042 173.5 28.0663C173.562 28.4974 173.624 28.9284 173.624 29.3594V40.9976C173.624 42.4139 174.057 42.9065 175.296 43.2144H175.358V43.5223H167.987V29.5442C167.987 27.3274 167.12 26.219 165.51 26.219C164.209 26.219 163.528 27.1426 163.218 27.8816V41.0592C163.218 42.4755 163.652 42.9681 164.891 43.276H164.953V43.5839H157.582V28.9284C157.582 26.9579 157.087 26.3421 155.414 26.219H155.352V25.9111L163.218 23.7559V27.0195C164.024 24.9258 165.882 23.6943 168.235 23.6943C170.899 23.6943 172.757 24.9874 173.376 27.3274C174.181 25.1106 176.225 23.6943 178.703 23.6943ZM65.7295 17.3518L73.1 34.532L80.4705 17.3518H88.3984L88.3365 17.6597L88.2465 17.6796C86.8806 17.9891 86.1687 18.4969 86.1687 20.1844V41.1208C86.2925 42.4755 87.0358 42.9065 88.3365 43.2144H88.3984V43.5223H78.3027V43.2144H78.3646C79.6653 42.9065 80.4085 42.4755 80.5324 41.1208V20.7386L70.8083 43.4607H70.2509L60.7745 21.3543V40.6282C60.7745 42.3523 61.5177 42.8449 62.9423 43.1528H63.0042V43.4607H57.1821V43.1528H57.2441C58.6686 42.8449 59.4119 42.3523 59.4119 40.6282V20.1844C59.4119 18.4602 58.6686 17.9676 57.2441 17.6597H57.1821V17.3518H65.7295ZM133.303 23.6943V40.505L133.304 40.6187C133.334 42.3728 134.076 42.8526 135.471 43.2144L135.532 43.5223H127.666V28.99C127.666 27.0195 127.233 26.4037 125.499 26.2806H125.437V25.9727L133.303 23.6943ZM36.7429 17.2286C40.5211 17.2286 43.6799 23.1401 43.6799 30.3447C43.6799 37.6108 40.583 43.4607 36.7429 43.4607C32.9028 43.4607 29.806 37.6108 29.806 30.3447C29.806 23.0785 32.9028 17.2286 36.7429 17.2286ZM47.3961 18.5833C48.8206 18.5833 49.8736 23.879 49.8736 30.3447C49.8736 36.8103 48.7587 42.106 47.3961 42.106C46.0471 42.106 44.9409 36.9157 44.9189 30.5383L44.9186 30.3447C44.9186 23.879 46.0335 18.5833 47.3961 18.5833ZM115.837 24.7411C113.359 24.7411 111.811 28.0047 111.811 33.0541C111.811 35.4556 112.244 37.5493 112.987 38.9656C113.669 40.3203 114.66 41.0592 115.775 41.0592C116.889 41.0592 117.695 40.5666 118.066 39.6429V26.0958C117.633 25.2337 116.827 24.7411 115.837 24.7411ZM96.698 24.8027C94.4682 24.8027 93.1675 27.4505 92.9817 31.1452V31.2068H99.7329C99.8568 28.3126 99.3613 26.4037 98.4322 25.48C97.9367 25.049 97.3793 24.8027 96.698 24.8027ZM130.268 16.305C132.064 16.305 133.427 17.6597 133.427 19.4454C133.427 21.2312 132.064 22.5859 130.268 22.5859C128.472 22.5859 127.109 21.2312 127.109 19.4454C127.109 17.6597 128.472 16.305 130.268 16.305Z" fill="black"/>
</g>
<defs>
<clipPath id="clip0_1589_28">
<rect width="186.57" height="61.7611" fill="white" transform="translate(0.509766 0.130005)"/>
</clipPath>
</defs>
</svg>
