<svg width="237" height="70" viewBox="0 0 237 70" fill="none" xmlns="http://www.w3.org/2000/svg">
<g clip-path="url(#clip0_1589_24)">
<path d="M57.1411 47.2894L58.602 46.988C59.8911 46.6435 60.2348 46.4712 60.2348 43.8874V23.6043C60.2348 21.0205 59.8481 20.8051 58.602 20.5037L57.1411 20.2022V18.9965H80.43L80.8597 27.5662H79.5276C78.4534 25.1977 77.7659 23.9488 77.1214 23.0014C75.7464 21.0205 74.8441 20.8482 71.8793 20.8482C69.6879 20.8482 68.6137 21.1066 67.9691 21.2788V32.2601H69.1293C72.1371 32.2601 72.8246 31.9156 73.3402 30.9682C73.9417 29.8916 74.2855 29.0734 74.6722 27.6954H75.9613V38.8058H74.6722C74.2855 37.4709 73.9417 36.6096 73.3402 35.3607C72.8246 34.2841 72.266 34.0688 69.1293 34.0688H67.9691V42.3371C67.9691 46.1698 68.0981 46.6004 72.266 46.6004C75.7035 46.6004 76.3909 46.1698 77.8089 44.0596C78.5823 42.8969 79.3987 41.0882 80.5159 38.3752H81.8909L81.2893 48.4952H57.1841L57.1411 47.2894ZM85.5002 31.1405C84.512 28.7289 84.0393 28.126 82.9651 27.7815L82.1487 27.5231V26.4034H94.9103V27.5231L93.7502 27.8246C92.8478 28.0829 92.4182 28.5136 92.4182 29.5471C92.4182 30.15 92.633 30.8821 92.9767 31.8295L96.5431 41.6481H96.758L100.195 31.8295C100.582 30.796 100.754 30.0639 100.754 29.461C100.754 28.5136 100.324 28.0399 99.422 27.8246L98.2619 27.5231V26.4034H106.125V27.5231L105.309 27.7815C104.191 28.1691 103.719 28.815 102.688 31.6142L96.1134 48.4952H92.5041L85.5002 31.1405ZM105.137 37.3417C105.137 29.9347 110.594 25.8436 116.223 25.8436C122.066 25.8436 125.719 28.772 125.848 36.4804H111.797C111.926 43.4567 114.547 45.3515 118.93 45.3515C121.551 45.3515 123.57 44.5764 125.16 43.7582V45.1793C123.656 46.8157 120.434 49.055 116.18 49.055C108.789 48.9689 105.137 44.5764 105.137 37.3417ZM111.797 34.844L119.059 34.4564C119.059 29.3318 118.371 27.437 115.836 27.437C113.688 27.437 111.969 29.504 111.797 34.844ZM137.019 29.1165C138.222 27.8246 140.672 25.7144 143.508 25.7144C145.312 25.7144 146.816 27.1786 146.816 29.0303C146.816 30.8821 145.355 32.3463 143.508 32.3463C142.176 32.3463 140.972 31.528 140.5 30.3653C140.242 29.8916 139.683 29.7624 139.297 29.7624C138.523 29.7624 137.621 30.3223 137.062 30.839V44.6195C137.062 46.6004 137.234 46.8157 138.523 47.031L139.941 47.3325V48.4952H127.695V47.3325L128.812 47.031C130.23 46.6435 130.402 46.4281 130.402 44.6195V31.3989C130.402 29.5902 130.187 29.461 128.984 28.6428L127.566 27.6954V26.8341L136.504 25.8006L136.976 26.1451L136.89 29.0734L137.019 29.1165ZM148.105 47.3325L149.222 47.031C150.64 46.6435 150.812 46.4281 150.812 44.6195V31.3989C150.812 29.5902 150.597 29.461 149.394 28.6428L147.976 27.6954V26.8341L156.914 25.8006L157.386 26.102L157.3 28.815H157.472C159.707 27.2217 162.5 25.8006 165.593 25.8006C169.203 25.8006 171.136 27.6523 171.136 31.485V44.5764C171.136 46.4281 171.308 46.6435 172.683 46.988L173.8 47.2894V48.4521H161.984V47.2894L163.015 47.031C164.304 46.6865 164.433 46.5573 164.433 44.5764V33.1645C164.433 30.5806 163.488 29.7624 161.511 29.7624C160.007 29.7624 158.504 30.1069 157.558 30.3223V44.6195C157.558 46.6435 157.687 46.7296 158.976 47.0741L160.007 47.3325V48.4952H148.191V47.3325H148.105ZM174.617 37.4709C174.617 29.3318 180.374 25.8436 186.089 25.8436C192.234 25.8436 197.605 29.5471 197.605 37.2555C197.605 45.3946 191.933 48.9689 186.089 48.9689C179.945 48.9689 174.617 45.2654 174.617 37.4709ZM190.472 37.6862C190.472 29.1165 188.839 27.48 185.917 27.48C183.253 27.48 181.663 29.4179 181.663 36.7388C181.663 45.4377 183.081 47.3325 186.175 47.3325C188.71 47.3325 190.472 45.8253 190.472 37.6862ZM201.257 43.1122V28.9012H198.593V27.8676C201.902 26.5757 204.437 24.1211 205.64 20.719H208.046V26.4034H213.675L213.116 28.9012H208.046V42.6816C208.046 44.7917 208.691 45.653 210.796 45.653C211.827 45.653 213.073 45.4377 213.847 45.2654V46.4712C212.816 47.4186 210.71 48.9689 207.144 48.9689C203.32 48.9689 201.257 47.2894 201.257 43.1122ZM214.706 37.3417C214.706 29.9347 220.163 25.8436 225.792 25.8436C231.636 25.8436 235.288 28.772 235.417 36.4804H221.409C221.538 43.4567 224.159 45.3515 228.542 45.3515C231.163 45.3515 233.183 44.5764 234.772 43.7582V45.1793C233.268 46.8157 230.046 49.055 225.792 49.055C218.358 48.9689 214.706 44.5764 214.706 37.3417ZM221.366 34.844L228.628 34.4564C228.628 29.3318 227.94 27.437 225.405 27.437C223.257 27.437 221.538 29.504 221.366 34.844Z" fill="black"/>
<path d="M14.0878 22.3118C14.0878 22.8286 14.0448 23.6898 13.5292 24.2497C12.9706 24.7664 12.1112 24.8095 11.5956 24.8095H6.09565C4.50582 24.8095 3.56052 24.8095 2.91599 24.8956C2.57225 24.9387 2.14256 25.1109 1.92772 25.1971C1.84178 25.2401 1.84178 25.1971 1.88475 25.154L14.4315 12.364C14.4745 12.321 14.5175 12.321 14.4745 12.4071C14.3885 12.6224 14.2167 13.0531 14.1737 13.3976C14.0878 14.0435 14.0878 14.9909 14.0878 16.5843V22.3118ZM25.7752 60.9831C24.3142 60.0357 23.5408 58.7869 23.24 58.0117C22.9393 57.2797 22.7674 56.4614 22.7674 55.6432C22.7674 52.0689 25.6892 49.1406 29.2986 49.1406C30.3728 49.1406 31.2322 50.0019 31.2322 51.0785C31.2322 51.8105 30.8454 52.4134 30.2439 52.7579C30.029 52.8871 29.7283 52.9733 29.5134 53.0163C29.2986 53.0594 28.4822 53.1455 28.0955 53.49C27.6658 53.8345 27.322 54.3944 27.322 54.9973C27.322 55.6432 27.5798 56.2461 28.0095 56.6768C28.783 57.4519 29.8142 57.8826 30.9314 57.8826C33.8532 57.8826 36.2165 55.514 36.2165 52.5857C36.2165 49.9588 34.4548 47.6333 32.1345 46.5998C31.7907 46.4276 31.2322 46.2984 30.7165 46.1692C30.072 46.04 29.4704 45.9539 29.4275 45.9539C27.6228 45.7385 23.1111 44.3174 22.8103 40.3125C22.8103 40.3125 21.4783 46.3414 18.8143 47.9779C18.5565 48.1071 18.2127 48.2362 17.826 48.3224C17.4393 48.4085 17.0096 48.4516 16.8807 48.4516C12.5409 48.7099 7.94329 47.3319 4.76363 44.059C4.76363 44.059 2.61521 42.2934 1.49804 37.3411C1.24023 36.1353 0.724605 33.9821 0.423826 31.9581C0.294921 31.226 0.251953 30.6662 0.208984 30.1494C0.208984 28.0393 1.49804 26.6182 3.13083 26.4029C3.1738 26.4029 3.30271 26.4029 3.38864 26.4029C4.37692 26.4029 11.8964 26.4029 11.8964 26.4029C13.4003 26.4029 14.2596 26.0153 14.8182 25.4985C15.5487 24.8095 15.7206 23.819 15.7206 22.6563C15.7206 22.6563 15.7206 14.8187 15.7206 13.8282C15.7206 13.7851 15.7206 13.6129 15.7206 13.5698C15.9354 11.9765 17.3534 10.6415 19.4588 10.6415C19.4588 10.6415 20.1033 10.6415 20.4901 10.6415C20.9197 10.6415 21.4354 10.6845 21.908 10.7276C22.2518 10.7707 22.5525 10.8568 23.0682 10.986C25.6892 11.6319 26.2478 14.3019 26.2478 14.3019C26.2478 14.3019 31.1892 15.1632 33.6813 15.5938C36.0446 16.0245 41.8883 16.412 43.0055 22.3118C45.6266 36.3506 44.0367 49.9588 43.9078 49.9588C42.0602 63.2225 31.0603 62.5765 31.0603 62.5765C28.697 62.5765 26.9353 61.8014 25.7752 60.9831ZM35.6579 32.7763C34.2399 32.6471 33.0368 33.2069 32.6071 34.2835C32.5212 34.4989 32.4353 34.7573 32.4782 34.8864C32.5212 35.0156 32.6071 35.0587 32.6931 35.1018C33.2087 35.3601 34.0681 35.4893 35.3141 35.6185C36.5602 35.7477 37.4196 35.8338 37.9782 35.7477C38.0641 35.7477 38.1501 35.7047 38.236 35.5755C38.3219 35.4463 38.279 35.1879 38.279 34.9726C38.1071 33.7668 37.0758 32.9486 35.6579 32.7763Z" fill="#00A82D"/>
</g>
<defs>
<clipPath id="clip0_1589_24">
<rect width="236.164" height="69.4599" fill="white" transform="translate(0.0795898 0.280518)"/>
</clipPath>
</defs>
</svg>
