<svg width="193" height="70" viewBox="0 0 193 70" fill="none" xmlns="http://www.w3.org/2000/svg">
<path d="M0 3.6853H41.4645V24.476H20.7323L0 3.6853ZM0 24.476H20.7323L41.4645 45.2667H0V24.476ZM0 45.2667H20.7323V66.0574L0 45.2667Z" fill="black"/>
<path d="M64.8602 20.0871H81.6209V25.4282H71.2041V32.8505H81.6209V38.0736H71.2041V47.5772H64.8602V20.0871ZM85.067 28.648H91.0589V32.6146C91.3719 31.2515 92.0122 30.2052 92.9778 29.4728C93.9681 28.7127 95.0675 28.3341 96.2674 28.3341C96.8944 28.3341 97.417 28.3874 97.8334 28.4911V34.0681C97.2358 33.9958 96.6344 33.9568 96.0321 33.9501C94.3874 33.9501 93.1486 34.4856 92.312 35.5596C91.4782 36.6069 91.0589 38.1773 91.0589 40.2728V47.5772H85.0698V28.648H85.067ZM107.292 48.088C105.465 48.088 103.872 47.6552 102.514 46.7915C101.183 45.9278 100.124 44.7017 99.4602 43.2568C98.7554 41.7396 98.4006 40.0227 98.4006 38.1126C98.4006 36.2273 98.7687 34.5247 99.4991 33.0075C100.184 31.5416 101.271 30.3022 102.632 29.4338C104.014 28.5701 105.594 28.1372 107.371 28.1372C108.702 28.1372 109.891 28.4264 110.935 29.0019C111.978 29.5793 112.762 30.365 113.284 31.3581V28.648H119.236V47.5772H113.284V44.9062C112.762 45.8489 111.952 46.6203 110.856 47.2234C109.759 47.8064 108.534 48.1032 107.292 48.088ZM109.016 43.0998C110.451 43.0998 111.561 42.629 112.344 41.6863C113.128 40.7437 113.519 39.5518 113.519 38.1126C113.519 36.6991 113.128 35.5206 112.344 34.5779C111.561 33.6353 110.451 33.1644 109.016 33.1644C107.657 33.1644 106.562 33.6219 105.726 34.5389C104.917 35.4559 104.512 36.6459 104.512 38.1126C104.512 39.5794 104.917 40.7827 105.726 41.7253C106.562 42.6423 107.658 43.0998 109.016 43.0998ZM123.427 28.648H129.419V31.3971C129.838 30.4268 130.515 29.6411 131.454 29.0409C132.422 28.4407 133.544 28.1372 134.823 28.1372C137.799 28.1372 139.771 29.3015 140.736 31.633C141.267 30.5762 142.098 29.702 143.125 29.1199C144.224 28.4569 145.485 28.1173 146.767 28.1372C151.232 28.1372 153.463 30.7017 153.463 35.8345V47.5772H147.433V36.9341C147.433 35.6528 147.197 34.7101 146.728 34.1071C146.257 33.5059 145.553 33.2034 144.613 33.2034C143.595 33.2034 142.811 33.5573 142.263 34.264C141.715 34.9451 141.441 36.1351 141.441 37.8377V47.5772H135.41V36.8951C135.41 35.6128 135.176 34.6826 134.705 34.1071C134.263 33.5059 133.57 33.2034 132.632 33.2034C131.586 33.2034 130.79 33.5573 130.241 34.264C129.693 34.9451 129.419 36.1351 129.419 37.8377V47.5772H123.429V28.648H123.427ZM175.972 37.131C175.972 37.9414 175.919 38.8194 175.813 39.762H161.874C161.927 40.9929 162.344 41.9337 163.127 42.59C163.911 43.2435 164.97 43.5716 166.299 43.5716C168.154 43.5716 169.329 43.0076 169.824 41.8823H175.698C175.41 43.7419 174.392 45.2458 172.643 46.3987C170.92 47.5239 168.805 48.088 166.299 48.088C163.063 48.088 160.517 47.21 158.662 45.456C156.836 43.701 155.921 41.2545 155.921 38.1126C155.921 36.0704 156.338 34.303 157.174 32.8106C157.981 31.32 159.226 30.1139 160.738 29.3548C162.279 28.5444 164.067 28.1372 166.106 28.1372C168.036 28.1372 169.745 28.5168 171.233 29.2768C172.747 30.0368 173.91 31.0965 174.718 32.4577C175.555 33.8208 175.972 35.3779 175.972 37.131ZM170.056 36.0314C170.031 34.7748 169.679 33.8179 168.999 33.1644C168.321 32.5109 167.341 32.1828 166.062 32.1828C164.783 32.1828 163.766 32.5357 163.008 33.2434C162.277 33.9244 161.899 34.8528 161.871 36.0314H170.056ZM178.614 28.648H184.606V32.6146C184.919 31.2515 185.559 30.2052 186.525 29.4728C187.462 28.7327 188.621 28.3313 189.814 28.3341C190.44 28.3341 190.964 28.3874 191.38 28.4911V34.0681C190.783 33.9958 190.181 33.9568 189.579 33.9501C187.934 33.9501 186.696 34.4856 185.859 35.5596C185.022 36.6069 184.606 38.1773 184.606 40.2728V47.5772H178.614V28.648Z" fill="black"/>
</svg>
