<svg width="209" height="68" viewBox="0 0 209 68" fill="none" xmlns="http://www.w3.org/2000/svg">
<g clip-path="url(#clip0_1589_26)">
<path d="M123.602 29.6184C126.808 29.6184 129.843 31.5683 130.484 35.7813H116.208C116.805 32.0844 119.585 29.6184 123.602 29.6184ZM130.028 42.0143C128.937 43.7042 126.83 45.0041 123.945 45.0041C119.969 45.0041 116.933 42.8372 116.208 39.0116H134.118C134.205 38.4633 134.248 37.9092 134.249 37.3542C134.249 31.4045 130.066 26.1334 123.605 26.1334C116.937 26.1334 112.406 31.021 112.406 37.3126C112.406 43.6821 116.982 48.4918 123.861 48.4918C128.136 48.4918 131.385 46.5783 133.265 43.6821L130.028 42.0143Z" fill="#006BFF"/>
<path d="M110.646 16.9105H106.928V47.938H110.646V16.9105Z" fill="#006BFF"/>
<path d="M154.938 34.8896V47.9367H151.219V35.1015C151.219 31.6164 149.211 29.6613 145.919 29.6613C142.499 29.6613 139.721 31.6593 139.721 36.6743V47.9367H136.001V26.6885H139.721V29.7484C141.302 27.2409 143.653 26.136 146.649 26.136C151.65 26.136 154.942 29.4508 154.942 34.8922" fill="#006BFF"/>
<path d="M175.443 37.3113C175.443 32.9761 172.151 29.7029 167.835 29.7029C163.56 29.7029 160.269 32.9761 160.269 37.3113C160.269 41.6464 163.56 44.9196 167.835 44.9196C172.149 44.9196 175.443 41.6464 175.443 37.3113ZM179.161 16.9105V47.938H175.443V44.2814C173.733 46.8812 170.998 48.4905 167.364 48.4905C161.422 48.4905 156.55 43.6015 156.55 37.3113C156.55 31.021 161.422 26.1321 167.364 26.1321C170.997 26.1321 173.733 27.7465 175.443 30.3399V16.9105H179.161Z" fill="#006BFF"/>
<path d="M185.878 16.9105H182.16V47.938H185.878V16.9105Z" fill="#006BFF"/>
<path d="M100.3 37.3113C100.3 32.9761 97.0096 29.703 92.6915 29.703C88.4178 29.703 85.1259 32.9761 85.1259 37.3113C85.1259 41.6465 88.4178 44.9197 92.6915 44.9197C97.0057 44.9197 100.3 41.6465 100.3 37.3113ZM104.02 26.6885V47.9367H100.3V44.2814C98.5902 46.8812 95.8552 48.4905 92.2222 48.4905C86.2803 48.4905 81.4066 43.6016 81.4066 37.3113C81.4066 31.0211 86.2803 26.1321 92.2222 26.1321C95.8552 26.1321 98.5902 27.7466 100.3 30.3399V26.6885H104.02Z" fill="#006BFF"/>
<path d="M75.8909 43.8472C73.9873 44.5457 71.9325 44.7342 69.9325 44.394C67.9325 44.0538 66.0576 43.1967 64.4957 41.9088C62.9339 40.6208 61.74 38.9473 61.0339 37.0558C60.3277 35.1644 60.134 33.1216 60.4723 31.1323C60.8105 29.143 61.6688 27.2771 62.9611 25.7216C64.2533 24.1661 65.9341 22.9758 67.835 22.2699C69.7358 21.5641 71.7899 21.3675 73.7912 21.7C75.7926 22.0324 77.6708 22.8821 79.2377 24.164C79.8911 24.7 80.4822 25.307 81 25.9735L84.2174 23.6336C82.343 21.1972 79.7833 19.369 76.8628 18.3806C73.9422 17.3923 70.7923 17.2883 67.8123 18.0819C64.8323 18.8756 62.1564 20.531 60.1236 22.8385C58.0909 25.146 56.7929 28.0016 56.3942 31.0434C55.9955 34.0852 56.514 37.1763 57.884 39.9247C59.254 42.6732 61.4138 44.9553 64.0897 46.4819C66.7656 48.0085 69.8371 48.7108 72.9148 48.4998C75.9926 48.2888 78.938 47.1739 81.3778 45.2966L79.2364 41.9298C78.236 42.7491 77.1054 43.3971 75.8909 43.8472Z" fill="#006BFF"/>
<path d="M203.828 26.6884V38.7489C203.828 42.6486 201.547 45.1185 198.064 45.1185C194.581 45.1185 192.059 42.6486 192.059 38.7489V26.6884H188.297V38.3875C188.297 44.5179 192.139 48.4982 198.064 48.4982C203.189 48.4982 203.989 45.2744 203.989 45.1939V49.5329C203.989 53.8317 202.108 56.26 198.184 56.26C196.783 56.2668 195.427 55.7669 194.368 54.8534C193.31 53.9398 192.622 52.6749 192.432 51.2943L189.068 52.4642C189.55 54.5096 190.713 56.3326 192.37 57.6363C194.026 58.94 196.078 59.6475 198.191 59.6436C204.275 59.6436 207.604 55.662 207.604 49.5329V26.6884H203.828Z" fill="#006BFF"/>
<path d="M31.1893 39.0677C29.7604 40.3286 27.9759 41.8976 24.7403 41.8976H22.8054C20.464 41.8976 18.3343 41.0514 16.81 39.5175C15.3209 38.0187 14.5012 35.9674 14.5012 33.7407V31.1084C14.5012 28.8817 15.3209 26.8304 16.81 25.3316C18.3343 23.7977 20.464 22.9528 22.8054 22.9528H24.7403C27.9798 22.9528 29.7604 24.5205 31.1893 25.7814C32.6732 27.0813 33.9531 28.2174 37.3665 28.2174C37.8871 28.2173 38.4069 28.176 38.9209 28.0939L38.9092 28.064C38.7047 27.5592 38.4649 27.0692 38.1914 26.5977L35.9101 22.6681C34.8814 20.8966 33.4018 19.4256 31.6201 18.4029C29.8383 17.3802 27.8173 16.8418 25.76 16.8419H21.1961C19.1388 16.8418 17.1177 17.3802 15.336 18.4029C13.5543 19.4256 12.0747 20.8966 11.0459 22.6681L8.76464 26.5977C7.73622 28.3694 7.19482 30.379 7.19482 32.4246C7.19482 34.4701 7.73622 36.4797 8.76464 38.2514L11.0459 42.181C12.0747 43.9525 13.5543 45.4235 15.336 46.4462C17.1177 47.4689 19.1388 48.0073 21.1961 48.0072H25.76C27.8173 48.0073 29.8383 47.4689 31.6201 46.4462C33.4018 45.4235 34.8814 43.9525 35.9101 42.181L38.1914 38.2579C38.4649 37.7864 38.7047 37.2964 38.9092 36.7916L38.9209 36.763C38.4071 36.6781 37.8873 36.6347 37.3665 36.633C33.9531 36.633 32.6732 37.7626 31.1893 39.069" fill="#006BFF"/>
<path d="M24.7396 25.338H22.8048C19.241 25.338 16.8995 27.8689 16.8995 31.1083V33.7406C16.8995 36.98 19.241 39.5109 22.8048 39.5109H24.7396C29.9324 39.5109 29.5245 34.2463 37.3659 34.2463C38.1088 34.2454 38.8502 34.3133 39.5805 34.4491C39.8184 33.1097 39.8184 31.7392 39.5805 30.3998C38.8501 30.5349 38.1088 30.6028 37.3659 30.6026C29.5219 30.6026 29.9324 25.338 24.7396 25.338" fill="#006BFF"/>
<path d="M44.0856 36.3731C42.7503 35.4007 41.2103 34.7424 39.5818 34.448C39.5818 34.4623 39.5818 34.474 39.5818 34.487C39.4417 35.2631 39.2227 36.0231 38.9282 36.7553C40.2734 36.9625 41.5497 37.4851 42.6515 38.2801C42.6515 38.2905 42.6449 38.3035 42.641 38.3152C41.223 42.8807 38.205 46.789 34.1354 49.3302C30.0657 51.8714 25.2144 52.8768 20.4626 52.1639C15.7108 51.4509 11.3738 49.0668 8.23952 45.4448C5.1052 41.8227 3.38148 37.2029 3.38148 32.4247C3.38148 27.6464 5.1052 23.0266 8.23952 19.4045C11.3738 15.7825 15.7108 13.3984 20.4626 12.6855C25.2144 11.9725 30.0657 12.9779 34.1354 15.5191C38.205 18.0603 41.223 21.9686 42.641 26.5341C42.641 26.5458 42.6475 26.5588 42.6515 26.5692C41.5499 27.3643 40.2735 27.8866 38.9282 28.0927C39.2223 28.8259 39.4413 29.5868 39.5818 30.3637C39.5811 30.3758 39.5811 30.3879 39.5818 30.4001C41.2102 30.1061 42.7502 29.4483 44.0856 28.4762C45.3694 27.5312 45.121 26.4639 44.9262 25.8322C43.339 20.7133 39.9575 16.3305 35.3962 13.4801C30.835 10.6298 25.3966 9.50104 20.0695 10.2991C14.7423 11.0971 9.87988 13.7689 6.3657 17.829C2.85151 21.8891 0.918823 27.068 0.918823 32.4247C0.918823 37.7813 2.85151 42.9602 6.3657 47.0203C9.87988 51.0804 14.7423 53.7522 20.0695 54.5503C25.3966 55.3483 30.835 54.2196 35.3962 51.3692C39.9575 48.5189 43.339 44.136 44.9262 39.0171C45.121 38.3854 45.3694 37.3182 44.0856 36.3731Z" fill="#006BFF"/>
<path d="M38.9215 28.0924C38.4078 28.1772 37.8879 28.2207 37.3671 28.2223C33.9537 28.2223 32.6738 27.0927 31.1913 25.7863C29.761 24.5254 27.9805 22.9564 24.7409 22.9564H22.806C20.4633 22.9564 18.3349 23.8027 16.8106 25.3365C15.3215 26.8353 14.5018 28.8866 14.5018 31.1133V33.7456C14.5018 35.9724 15.3215 38.0236 16.8106 39.5224C18.3349 41.0563 20.4633 41.9013 22.806 41.9013H24.7409C27.9805 41.9013 29.761 40.3336 31.1913 39.0727C32.6738 37.7728 33.9537 36.6366 37.3671 36.6366C37.8877 36.6368 38.4075 36.6781 38.9215 36.7601C39.2166 36.0281 39.4356 35.2681 39.5752 34.4918C39.5759 34.4788 39.5759 34.4658 39.5752 34.4528C38.8448 34.3181 38.1034 34.2507 37.3606 34.2513C29.5166 34.2513 29.9271 39.5172 24.7343 39.5172H22.7995C19.2357 39.5172 16.8943 36.985 16.8943 33.7456V31.1081C16.8943 27.8688 19.2357 25.3378 22.7995 25.3378H24.7343C29.9271 25.3378 29.5192 30.6012 37.3606 30.6012C38.1035 30.6024 38.8449 30.535 39.5752 30.3997C39.5752 30.388 39.5752 30.3763 39.5752 30.3633C39.4347 29.5864 39.2157 28.8256 38.9215 28.0924Z" fill="#0AE8F0"/>
<path d="M38.9215 28.0924C38.4078 28.1772 37.8879 28.2207 37.3671 28.2223C33.9537 28.2223 32.6738 27.0927 31.1913 25.7863C29.761 24.5254 27.9805 22.9564 24.7409 22.9564H22.806C20.4633 22.9564 18.3349 23.8027 16.8106 25.3365C15.3215 26.8353 14.5018 28.8866 14.5018 31.1133V33.7456C14.5018 35.9724 15.3215 38.0236 16.8106 39.5224C18.3349 41.0563 20.4633 41.9013 22.806 41.9013H24.7409C27.9805 41.9013 29.761 40.3336 31.1913 39.0727C32.6738 37.7728 33.9537 36.6366 37.3671 36.6366C37.8877 36.6368 38.4075 36.6781 38.9215 36.7601C39.2166 36.0281 39.4356 35.2681 39.5752 34.4918C39.5759 34.4788 39.5759 34.4658 39.5752 34.4528C38.8448 34.3181 38.1034 34.2507 37.3606 34.2513C29.5166 34.2513 29.9271 39.5172 24.7343 39.5172H22.7995C19.2357 39.5172 16.8943 36.985 16.8943 33.7456V31.1081C16.8943 27.8688 19.2357 25.3378 22.7995 25.3378H24.7343C29.9271 25.3378 29.5192 30.6012 37.3606 30.6012C38.1035 30.6024 38.8449 30.535 39.5752 30.3997C39.5752 30.388 39.5752 30.3763 39.5752 30.3633C39.4347 29.5864 39.2157 28.8256 38.9215 28.0924Z" fill="#0AE8F0"/>
</g>
<defs>
<clipPath id="clip0_1589_26">
<rect width="207.824" height="66.4356" fill="white" transform="translate(0.918823 0.792725)"/>
</clipPath>
</defs>
</svg>
