<svg width="124" height="75" viewBox="0 0 124 75" fill="none" xmlns="http://www.w3.org/2000/svg">
<g clip-path="url(#clip0_1589_27)">
<path fill-rule="evenodd" clip-rule="evenodd" d="M122.444 39.7874C122.444 31.0961 118.252 24.2382 110.24 24.2382C102.195 24.2382 97.3266 31.0961 97.3266 39.7195C97.3266 49.9385 103.074 55.099 111.322 55.099C115.345 55.099 118.388 54.1823 120.686 52.8922V46.1021C118.388 47.2565 115.751 47.9694 112.404 47.9694C109.125 47.9694 106.218 46.8151 105.846 42.809H122.377C122.377 42.3676 122.444 40.6022 122.444 39.7874ZM105.744 36.5621C105.744 32.7257 108.077 31.1301 110.207 31.1301C112.269 31.1301 114.466 32.7257 114.466 36.5621H105.744Z" fill="#635BFF"/>
<path fill-rule="evenodd" clip-rule="evenodd" d="M84.2773 24.2381C80.9643 24.2381 78.8346 25.7998 77.6514 26.8863L77.2119 24.7813H69.7746V64.3674L78.2261 62.568L78.2599 52.9601C79.4769 53.8428 81.2686 55.0989 84.2435 55.0989C90.2947 55.0989 95.8051 50.2101 95.8051 39.4479C95.7713 29.6023 90.1933 24.2381 84.2773 24.2381ZM82.249 47.6299C80.2544 47.6299 79.0712 46.9169 78.2599 46.0342L78.2261 33.4387C79.105 32.4541 80.322 31.7751 82.249 31.7751C85.3253 31.7751 87.455 35.238 87.455 39.6855C87.455 44.2349 85.3591 47.6299 82.249 47.6299Z" fill="#635BFF"/>
<path fill-rule="evenodd" clip-rule="evenodd" d="M58.1452 22.235L66.6305 20.4017V13.5098L58.1452 15.3091V22.235Z" fill="#635BFF"/>
<path d="M66.6305 24.8152H58.1452V54.5218H66.6305V24.8152Z" fill="#635BFF"/>
<path fill-rule="evenodd" clip-rule="evenodd" d="M49.0511 27.3275L48.5102 24.8152H41.2082V54.5217H49.6596V34.3892C51.6542 31.775 55.0347 32.2503 56.0827 32.6238V24.8152C55.0009 24.4078 51.0456 23.6609 49.0511 27.3275Z" fill="#635BFF"/>
<path fill-rule="evenodd" clip-rule="evenodd" d="M32.1484 17.448L23.8998 19.2134L23.866 46.4076C23.866 51.4322 27.6185 55.1328 32.6217 55.1328C35.3938 55.1328 37.4222 54.6235 38.5378 54.0124V47.1205C37.456 47.5619 32.1146 49.1236 32.1146 44.0989V32.0466H38.5378V24.8152H32.1146L32.1484 17.448Z" fill="#635BFF"/>
<path fill-rule="evenodd" clip-rule="evenodd" d="M9.29604 33.4387C9.29604 32.1146 10.3778 31.6054 12.1695 31.6054C14.7388 31.6054 17.9841 32.3862 20.5534 33.7782V25.7999C17.7475 24.6795 14.9754 24.2382 12.1695 24.2382C5.30695 24.2382 0.743164 27.8369 0.743164 33.8461C0.743164 43.2164 13.5894 41.7226 13.5894 45.7626C13.5894 47.3244 12.2371 47.8336 10.344 47.8336C7.53814 47.8336 3.95472 46.6793 1.11503 45.1176V53.1978C4.25897 54.5558 7.43672 55.1329 10.344 55.1329C17.3756 55.1329 22.2099 51.636 22.2099 45.5589C22.1761 35.4418 9.29604 37.2411 9.29604 33.4387Z" fill="#635BFF"/>
</g>
<defs>
<clipPath id="clip0_1589_27">
<rect width="122.767" height="74.021" fill="white" transform="translate(0.743164)"/>
</clipPath>
</defs>
</svg>
