<svg width="64" height="64" viewBox="0 0 64 64" fill="none" xmlns="http://www.w3.org/2000/svg">
<g clip-path="url(#clip0_1572_670)">
<g clip-path="url(#clip1_1572_670)">
<path d="M25.0003 15.667H20.3337C19.096 15.667 17.909 16.1587 17.0338 17.0338C16.1587 17.909 15.667 19.096 15.667 20.3337V48.3337C15.667 49.5713 16.1587 50.7583 17.0338 51.6335C17.909 52.5087 19.096 53.0003 20.3337 53.0003H43.667C44.9047 53.0003 46.0917 52.5087 46.9668 51.6335C47.842 50.7583 48.3337 49.5713 48.3337 48.3337V20.3337C48.3337 19.096 47.842 17.909 46.9668 17.0338C46.0917 16.1587 44.9047 15.667 43.667 15.667H39.0003" stroke="#1A1A1A" stroke-width="3.5" stroke-linecap="round" stroke-linejoin="round"/>
<path d="M25 15.6667C25 14.429 25.4917 13.242 26.3668 12.3668C27.242 11.4917 28.429 11 29.6667 11H34.3333C35.571 11 36.758 11.4917 37.6332 12.3668C38.5083 13.242 39 14.429 39 15.6667C39 16.9043 38.5083 18.0913 37.6332 18.9665C36.758 19.8417 35.571 20.3333 34.3333 20.3333H29.6667C28.429 20.3333 27.242 19.8417 26.3668 18.9665C25.4917 18.0913 25 16.9043 25 15.6667Z" stroke="#1A1A1A" stroke-width="3.5" stroke-linecap="round" stroke-linejoin="round"/>
</g>
</g>
<defs>
<clipPath id="clip0_1572_670">
<rect width="64" height="64" fill="white"/>
</clipPath>
<clipPath id="clip1_1572_670">
<rect width="56" height="56" fill="white" transform="translate(4 4)"/>
</clipPath>
</defs>
</svg>
