<svg width="64" height="64" viewBox="0 0 64 64" fill="none" xmlns="http://www.w3.org/2000/svg">
<g clip-path="url(#clip0_1572_702)">
<path d="M18.6669 26.6669H26.6669V18.6669L17.3336 9.3336C20.3193 7.90766 23.6736 7.44241 26.9347 8.00192C30.1957 8.56143 33.2031 10.1182 35.5427 12.4578C37.8823 14.7974 39.4391 17.8048 39.9986 21.0659C40.5581 24.3269 40.0929 27.6812 38.6669 30.6669L54.6669 46.6669C55.7278 47.7278 56.3238 49.1666 56.3238 50.6669C56.3238 52.1672 55.7278 53.6061 54.6669 54.6669C53.6061 55.7278 52.1672 56.3238 50.6669 56.3238C49.1666 56.3238 47.7278 55.7278 46.6669 54.6669L30.6669 38.6669C27.6812 40.0929 24.3269 40.5581 21.0659 39.9986C17.8048 39.4391 14.7974 37.8823 12.4578 35.5427C10.1182 33.2031 8.56143 30.1957 8.00192 26.9347C7.44241 23.6736 7.90766 20.3193 9.3336 17.3336L18.6669 26.6669Z" stroke="#1A1A1A" stroke-width="3.5" stroke-linecap="round" stroke-linejoin="round"/>
</g>
<defs>
<clipPath id="clip0_1572_702">
<rect width="64" height="64" fill="white"/>
</clipPath>
</defs>
</svg>
